<?xml version="1.0" encoding="utf-8"?>
<!-- Generator: Adobe Illustrator 26.1.0, SVG Export Plug-In . SVG Version: 6.00 Build 0)  -->
<svg version="1.1" id="Layer_1" xmlns="http://www.w3.org/2000/svg" xmlns:xlink="http://www.w3.org/1999/xlink" x="0px" y="0px"
	 viewBox="0 0 68 19" style="enable-background:new 0 0 68 19;" xml:space="preserve">
<style type="text/css">
	.st0{fill:#FFFFFF;}
</style>
<path class="st0" d="M0.4,14V0.1h3.4l3.9,10.4H7.3l3.9-10.4h3.4V14h-2.3V2.8l0.2,0l-3.8,10H6.4l-3.9-10l0.2,0V14H0.4z M17.9,14V4.1
	h2.2V14H17.9z M17.8,2.5V0.1h2.4v2.5H17.8z M27.4,18.3c-1.5,0-2.6-0.3-3.4-0.8c-0.8-0.5-1.3-1.2-1.3-2.1c0-0.1,0-0.2,0-0.3
	c0-0.1,0-0.2,0.1-0.3l2.7-1.7l0.6,0.6l-1.3,1.6c0,0,0,0.1,0,0.1c0,0,0,0.1,0,0.1c0,0.4,0.2,0.7,0.7,0.9c0.5,0.2,1.2,0.3,1.9,0.3
	c0.7,0,1.2-0.1,1.6-0.3c0.4-0.2,0.6-0.4,0.6-0.8c0-0.2-0.1-0.4-0.2-0.5c-0.1-0.1-0.3-0.2-0.5-0.3s-0.5-0.2-0.9-0.2
	c-0.3-0.1-0.8-0.1-1.2-0.2c-0.6-0.1-1.2-0.2-1.8-0.4c-0.6-0.2-1.1-0.4-1.4-0.8c-0.4-0.3-0.6-0.8-0.6-1.4c0-0.5,0.2-1,0.5-1.4
	c0.3-0.4,0.8-0.8,1.4-1l1.1,0.9c-0.4,0.1-0.7,0.2-0.8,0.4c-0.2,0.2-0.3,0.4-0.3,0.7c0,0.2,0.1,0.4,0.3,0.6c0.2,0.1,0.4,0.2,0.7,0.3
	c0.3,0.1,0.7,0.1,1.2,0.2c0.7,0.1,1.3,0.2,1.9,0.3c0.6,0.1,1.1,0.3,1.5,0.5c0.4,0.2,0.8,0.4,1,0.8c0.2,0.3,0.4,0.8,0.4,1.3
	c0,0.9-0.4,1.7-1.2,2.2C29.9,18,28.8,18.3,27.4,18.3z M27.2,11.1c-0.8,0-1.5-0.2-2.1-0.5c-0.6-0.3-1.1-0.7-1.4-1.3
	c-0.3-0.5-0.5-1.2-0.5-1.8c0-0.7,0.2-1.4,0.5-1.9c0.4-0.5,0.8-1,1.4-1.3c0.6-0.3,1.3-0.5,2-0.5c0.7,0,1.4,0.2,2,0.5
	c0.6,0.3,1.1,0.7,1.4,1.3c0.4,0.5,0.6,1.2,0.6,2c0,0.7-0.2,1.3-0.5,1.8c-0.3,0.5-0.8,0.9-1.4,1.2C28.6,11,28,11.1,27.2,11.1z
	 M27.1,9.4c0.6,0,1-0.2,1.3-0.5c0.3-0.4,0.4-0.8,0.4-1.3c0-0.5-0.2-1-0.5-1.3c-0.3-0.3-0.7-0.5-1.3-0.5c-0.5,0-1,0.2-1.3,0.5
	c-0.3,0.3-0.5,0.7-0.5,1.3c0,0.5,0.2,0.9,0.5,1.3C26.1,9.2,26.6,9.4,27.1,9.4z M30.4,6.1l-1.6-1L31,3.3l1.1,1.4L30.4,6.1z M34.3,14
	V0.1h2.2v6.3l-0.4,0.1c0.2-0.6,0.4-1,0.8-1.4c0.3-0.4,0.7-0.6,1.2-0.8C38.5,4,39,4,39.4,4c1.1,0,2,0.3,2.6,1C42.7,5.5,43,6.4,43,7.6
	V14h-2.2V8.4c0-0.9-0.2-1.5-0.5-1.9c-0.3-0.4-0.8-0.6-1.5-0.6c-0.7,0-1.3,0.3-1.7,0.8s-0.6,1.4-0.6,2.5V14H34.3z M49.5,14.2
	c-0.5,0-1-0.1-1.4-0.3c-0.4-0.2-0.8-0.5-1-0.9c-0.3-0.4-0.4-1-0.4-1.7V1.7l2.2-1.2v10.1c0,0.6,0.1,1,0.2,1.3
	c0.2,0.3,0.5,0.4,0.9,0.4c0.1,0,0.3,0,0.5,0c0.2,0,0.4-0.1,0.6-0.1v1.7c-0.3,0.1-0.5,0.2-0.8,0.2C50,14.2,49.8,14.2,49.5,14.2z
	 M44.8,5.9V4.1h6.3v1.7H44.8z M54.6,18.1l2-4.7l-3.8-9.2h2.4l2.5,7l2.5-7h2.4L57,18.1H54.6z M64.8,14v-2.5h2.4V14H64.8z"/>
</svg>
